M48
;DRILL file {KiCad 4.0.4-stable} date 12/13/16 07:15:25
;FORMAT={-:-/ absolute / inch / decimal}
FMAT,2
INCH,TZ
T1C0.032
T2C0.039
T3C0.040
T4C0.091
T5C0.138
%
G90
G05
M72
T1
X4.1Y-3.9
X4.1Y-4.1
X4.1Y-4.65
X4.1Y-4.85
X4.1Y-5.4
X4.1Y-5.6
X4.29Y-5.99
X4.29Y-6.09
X4.41Y-5.99
X4.41Y-6.09
X4.6Y-3.9
X4.6Y-4.1
X4.6Y-4.65
X4.6Y-4.85
X4.6Y-5.4
X4.6Y-5.6
T2
X4.1531Y-1.9
X4.5469Y-1.9
X4.6004Y-1.75
X4.75Y-1.5531
X4.75Y-1.9469
X4.8996Y-1.75
T3
X3.85Y-2.65
X3.85Y-2.75
X3.85Y-2.85
X3.85Y-2.95
X3.85Y-3.05
X4.Y-2.35
X4.Y-2.45
X4.Y-2.55
X4.Y-2.65
X4.Y-2.75
X4.Y-2.85
X4.Y-2.95
X4.Y-3.05
X4.Y-3.15
X4.Y-3.25
X4.Y-3.35
X4.Y-3.45
X4.2Y-1.45
X4.3Y-1.45
X4.4Y-1.45
X4.5Y-1.45
X4.7Y-2.35
X4.7Y-2.45
X4.7Y-2.55
X4.7Y-2.65
X4.7Y-2.75
X4.7Y-2.85
X4.7Y-2.95
X4.7Y-3.05
X4.7Y-3.15
X4.7Y-3.25
X4.7Y-3.35
X4.7Y-3.45
T4
X4.1138Y-6.185
X4.5862Y-6.185
T5
X3.8Y-1.55
X3.8Y-6.15
X4.25Y-3.65
X4.625Y-5.125
X4.85Y-2.2
X4.85Y-6.15
T0
M30
