G04 #@! TF.FileFunction,Copper,L2,Bot,Signal*
%FSLAX46Y46*%
G04 Gerber Fmt 4.6, Leading zero omitted, Abs format (unit mm)*
G04 Created by KiCad (PCBNEW 4.0.4-stable) date 12/11/16 12:15:52*
%MOMM*%
%LPD*%
G01*
G04 APERTURE LIST*
%ADD10C,0.100000*%
%ADD11O,1.727200X3.048000*%
%ADD12C,1.524000*%
%ADD13C,2.700020*%
%ADD14R,2.032000X1.727200*%
%ADD15O,2.032000X1.727200*%
%ADD16R,1.727200X2.032000*%
%ADD17O,1.727200X2.032000*%
%ADD18C,1.998980*%
G04 APERTURE END LIST*
D10*
D11*
X109220000Y-96520000D03*
X104140000Y-96520000D03*
X109220000Y-109220000D03*
X104140000Y-109220000D03*
D12*
X109220000Y-152400000D03*
X111760000Y-152400000D03*
X111760000Y-154398980D03*
X109220000Y-154398980D03*
D13*
X104490520Y-157099000D03*
X116489480Y-157099000D03*
D14*
X119380000Y-59690000D03*
D15*
X119380000Y-62230000D03*
X119380000Y-64770000D03*
X119380000Y-67310000D03*
X119380000Y-69850000D03*
X119380000Y-72390000D03*
X119380000Y-74930000D03*
X119380000Y-77470000D03*
X119380000Y-80010000D03*
X119380000Y-82550000D03*
X119380000Y-85090000D03*
X119380000Y-87630000D03*
D14*
X101600000Y-59690000D03*
D15*
X101600000Y-62230000D03*
X101600000Y-64770000D03*
X101600000Y-67310000D03*
X101600000Y-69850000D03*
X101600000Y-72390000D03*
X101600000Y-74930000D03*
X101600000Y-77470000D03*
X101600000Y-80010000D03*
X101600000Y-82550000D03*
X101600000Y-85090000D03*
X101600000Y-87630000D03*
D16*
X114300000Y-49530000D03*
D17*
X111760000Y-49530000D03*
X109220000Y-49530000D03*
X106680000Y-49530000D03*
D18*
X118110000Y-97790000D03*
X118110000Y-107950000D03*
X118110000Y-115570000D03*
X118110000Y-125730000D03*
X118110000Y-133350000D03*
X118110000Y-143510000D03*
D11*
X109220000Y-114300000D03*
X104140000Y-114300000D03*
X109220000Y-127000000D03*
X104140000Y-127000000D03*
X109220000Y-132080000D03*
X104140000Y-132080000D03*
X109220000Y-144780000D03*
X104140000Y-144780000D03*
M02*
