G04 #@! TF.FileFunction,Legend,Top*
%FSLAX46Y46*%
G04 Gerber Fmt 4.6, Leading zero omitted, Abs format (unit mm)*
G04 Created by KiCad (PCBNEW 4.0.4-stable) date 12/08/16 18:08:25*
%MOMM*%
%LPD*%
G01*
G04 APERTURE LIST*
%ADD10C,0.100000*%
%ADD11C,0.150000*%
G04 APERTURE END LIST*
D10*
D11*
X120650000Y-60960000D02*
X120650000Y-88900000D01*
X120650000Y-88900000D02*
X118110000Y-88900000D01*
X118110000Y-88900000D02*
X118110000Y-60960000D01*
X120930000Y-58140000D02*
X120930000Y-59690000D01*
X120650000Y-60960000D02*
X118110000Y-60960000D01*
X117830000Y-59690000D02*
X117830000Y-58140000D01*
X117830000Y-58140000D02*
X120930000Y-58140000D01*
X102870000Y-60960000D02*
X102870000Y-88900000D01*
X102870000Y-88900000D02*
X100330000Y-88900000D01*
X100330000Y-88900000D02*
X100330000Y-60960000D01*
X103150000Y-58140000D02*
X103150000Y-59690000D01*
X102870000Y-60960000D02*
X100330000Y-60960000D01*
X100050000Y-59690000D02*
X100050000Y-58140000D01*
X100050000Y-58140000D02*
X103150000Y-58140000D01*
X113030000Y-48260000D02*
X105410000Y-48260000D01*
X113030000Y-50800000D02*
X105410000Y-50800000D01*
X115850000Y-51080000D02*
X114300000Y-51080000D01*
X105410000Y-48260000D02*
X105410000Y-50800000D01*
X113030000Y-50800000D02*
X113030000Y-48260000D01*
X114300000Y-47980000D02*
X115850000Y-47980000D01*
X115850000Y-47980000D02*
X115850000Y-51080000D01*
X116840000Y-110490000D02*
X116840000Y-115570000D01*
X116840000Y-115570000D02*
X114300000Y-115570000D01*
X114300000Y-115570000D02*
X114300000Y-110490000D01*
X114300000Y-110490000D02*
X116840000Y-110490000D01*
X115570000Y-110490000D02*
X115570000Y-109220000D01*
X115570000Y-115570000D02*
X115570000Y-116840000D01*
X116840000Y-128270000D02*
X116840000Y-133350000D01*
X116840000Y-133350000D02*
X114300000Y-133350000D01*
X114300000Y-133350000D02*
X114300000Y-128270000D01*
X114300000Y-128270000D02*
X116840000Y-128270000D01*
X115570000Y-128270000D02*
X115570000Y-127000000D01*
X115570000Y-133350000D02*
X115570000Y-134620000D01*
X116840000Y-146050000D02*
X116840000Y-151130000D01*
X116840000Y-151130000D02*
X114300000Y-151130000D01*
X114300000Y-151130000D02*
X114300000Y-146050000D01*
X114300000Y-146050000D02*
X116840000Y-146050000D01*
X115570000Y-146050000D02*
X115570000Y-144780000D01*
X115570000Y-151130000D02*
X115570000Y-152400000D01*
X101854000Y-181610000D02*
X101854000Y-190246000D01*
X101854000Y-173228000D02*
X101854000Y-178308000D01*
X114046000Y-181610000D02*
X114046000Y-190246000D01*
X114046000Y-173228000D02*
X114046000Y-178308000D01*
X114046000Y-190246000D02*
X101854000Y-190246000D01*
X101854000Y-173228000D02*
X114046000Y-173228000D01*
X118641905Y-55042381D02*
X118641905Y-54042381D01*
X119022858Y-54042381D01*
X119118096Y-54090000D01*
X119165715Y-54137619D01*
X119213334Y-54232857D01*
X119213334Y-54375714D01*
X119165715Y-54470952D01*
X119118096Y-54518571D01*
X119022858Y-54566190D01*
X118641905Y-54566190D01*
X120165715Y-55042381D02*
X119594286Y-55042381D01*
X119880000Y-55042381D02*
X119880000Y-54042381D01*
X119784762Y-54185238D01*
X119689524Y-54280476D01*
X119594286Y-54328095D01*
X100861905Y-55042381D02*
X100861905Y-54042381D01*
X101242858Y-54042381D01*
X101338096Y-54090000D01*
X101385715Y-54137619D01*
X101433334Y-54232857D01*
X101433334Y-54375714D01*
X101385715Y-54470952D01*
X101338096Y-54518571D01*
X101242858Y-54566190D01*
X100861905Y-54566190D01*
X101814286Y-54137619D02*
X101861905Y-54090000D01*
X101957143Y-54042381D01*
X102195239Y-54042381D01*
X102290477Y-54090000D01*
X102338096Y-54137619D01*
X102385715Y-54232857D01*
X102385715Y-54328095D01*
X102338096Y-54470952D01*
X101766667Y-55042381D01*
X102385715Y-55042381D01*
X119852381Y-50268095D02*
X118852381Y-50268095D01*
X118852381Y-49887142D01*
X118900000Y-49791904D01*
X118947619Y-49744285D01*
X119042857Y-49696666D01*
X119185714Y-49696666D01*
X119280952Y-49744285D01*
X119328571Y-49791904D01*
X119376190Y-49887142D01*
X119376190Y-50268095D01*
X119185714Y-48839523D02*
X119852381Y-48839523D01*
X118804762Y-49077619D02*
X119519048Y-49315714D01*
X119519048Y-48696666D01*
X119522501Y-113445586D02*
X119046310Y-113778920D01*
X119522501Y-114017015D02*
X118522501Y-114017015D01*
X118522501Y-113636062D01*
X118570120Y-113540824D01*
X118617739Y-113493205D01*
X118712977Y-113445586D01*
X118855834Y-113445586D01*
X118951072Y-113493205D01*
X118998691Y-113540824D01*
X119046310Y-113636062D01*
X119046310Y-114017015D01*
X119522501Y-112493205D02*
X119522501Y-113064634D01*
X119522501Y-112778920D02*
X118522501Y-112778920D01*
X118665358Y-112874158D01*
X118760596Y-112969396D01*
X118808215Y-113064634D01*
X119522501Y-131225586D02*
X119046310Y-131558920D01*
X119522501Y-131797015D02*
X118522501Y-131797015D01*
X118522501Y-131416062D01*
X118570120Y-131320824D01*
X118617739Y-131273205D01*
X118712977Y-131225586D01*
X118855834Y-131225586D01*
X118951072Y-131273205D01*
X118998691Y-131320824D01*
X119046310Y-131416062D01*
X119046310Y-131797015D01*
X118617739Y-130844634D02*
X118570120Y-130797015D01*
X118522501Y-130701777D01*
X118522501Y-130463681D01*
X118570120Y-130368443D01*
X118617739Y-130320824D01*
X118712977Y-130273205D01*
X118808215Y-130273205D01*
X118951072Y-130320824D01*
X119522501Y-130892253D01*
X119522501Y-130273205D01*
X119522501Y-149005586D02*
X119046310Y-149338920D01*
X119522501Y-149577015D02*
X118522501Y-149577015D01*
X118522501Y-149196062D01*
X118570120Y-149100824D01*
X118617739Y-149053205D01*
X118712977Y-149005586D01*
X118855834Y-149005586D01*
X118951072Y-149053205D01*
X118998691Y-149100824D01*
X119046310Y-149196062D01*
X119046310Y-149577015D01*
X118522501Y-148672253D02*
X118522501Y-148053205D01*
X118903453Y-148386539D01*
X118903453Y-148243681D01*
X118951072Y-148148443D01*
X118998691Y-148100824D01*
X119093930Y-148053205D01*
X119332025Y-148053205D01*
X119427263Y-148100824D01*
X119474882Y-148148443D01*
X119522501Y-148243681D01*
X119522501Y-148529396D01*
X119474882Y-148624634D01*
X119427263Y-148672253D01*
X107211905Y-186761381D02*
X107211905Y-185761381D01*
X107592858Y-185761381D01*
X107688096Y-185809000D01*
X107735715Y-185856619D01*
X107783334Y-185951857D01*
X107783334Y-186094714D01*
X107735715Y-186189952D01*
X107688096Y-186237571D01*
X107592858Y-186285190D01*
X107211905Y-186285190D01*
X108688096Y-185761381D02*
X108211905Y-185761381D01*
X108164286Y-186237571D01*
X108211905Y-186189952D01*
X108307143Y-186142333D01*
X108545239Y-186142333D01*
X108640477Y-186189952D01*
X108688096Y-186237571D01*
X108735715Y-186332810D01*
X108735715Y-186570905D01*
X108688096Y-186666143D01*
X108640477Y-186713762D01*
X108545239Y-186761381D01*
X108307143Y-186761381D01*
X108211905Y-186713762D01*
X108164286Y-186666143D01*
M02*
