G04 #@! TF.FileFunction,Copper,L1,Top,Signal*
%FSLAX46Y46*%
G04 Gerber Fmt 4.6, Leading zero omitted, Abs format (unit mm)*
G04 Created by KiCad (PCBNEW 4.0.4-stable) date 12/11/16 12:15:52*
%MOMM*%
%LPD*%
G01*
G04 APERTURE LIST*
%ADD10C,0.100000*%
%ADD11O,1.727200X3.048000*%
%ADD12C,1.524000*%
%ADD13C,2.700020*%
%ADD14R,2.032000X1.727200*%
%ADD15O,2.032000X1.727200*%
%ADD16R,1.727200X2.032000*%
%ADD17O,1.727200X2.032000*%
%ADD18C,1.998980*%
%ADD19C,0.250000*%
G04 APERTURE END LIST*
D10*
D11*
X109220000Y-96520000D03*
X104140000Y-96520000D03*
X109220000Y-109220000D03*
X104140000Y-109220000D03*
D12*
X109220000Y-152400000D03*
X111760000Y-152400000D03*
X111760000Y-154398980D03*
X109220000Y-154398980D03*
D13*
X104490520Y-157099000D03*
X116489480Y-157099000D03*
D14*
X119380000Y-59690000D03*
D15*
X119380000Y-62230000D03*
X119380000Y-64770000D03*
X119380000Y-67310000D03*
X119380000Y-69850000D03*
X119380000Y-72390000D03*
X119380000Y-74930000D03*
X119380000Y-77470000D03*
X119380000Y-80010000D03*
X119380000Y-82550000D03*
X119380000Y-85090000D03*
X119380000Y-87630000D03*
D14*
X101600000Y-59690000D03*
D15*
X101600000Y-62230000D03*
X101600000Y-64770000D03*
X101600000Y-67310000D03*
X101600000Y-69850000D03*
X101600000Y-72390000D03*
X101600000Y-74930000D03*
X101600000Y-77470000D03*
X101600000Y-80010000D03*
X101600000Y-82550000D03*
X101600000Y-85090000D03*
X101600000Y-87630000D03*
D16*
X114300000Y-49530000D03*
D17*
X111760000Y-49530000D03*
X109220000Y-49530000D03*
X106680000Y-49530000D03*
D18*
X118110000Y-97790000D03*
X118110000Y-107950000D03*
X118110000Y-115570000D03*
X118110000Y-125730000D03*
X118110000Y-133350000D03*
X118110000Y-143510000D03*
D11*
X109220000Y-114300000D03*
X104140000Y-114300000D03*
X109220000Y-127000000D03*
X104140000Y-127000000D03*
X109220000Y-132080000D03*
X104140000Y-132080000D03*
X109220000Y-144780000D03*
X104140000Y-144780000D03*
D19*
X118110000Y-115570000D02*
X119380000Y-115570000D01*
X120650000Y-97790000D02*
X118110000Y-97790000D01*
X121920000Y-99060000D02*
X120650000Y-97790000D01*
X121920000Y-113030000D02*
X121920000Y-99060000D01*
X119380000Y-115570000D02*
X121920000Y-113030000D01*
X118110000Y-133350000D02*
X120650000Y-133350000D01*
X120650000Y-115570000D02*
X118110000Y-115570000D01*
X121920000Y-116840000D02*
X120650000Y-115570000D01*
X121920000Y-132080000D02*
X121920000Y-116840000D01*
X120650000Y-133350000D02*
X121920000Y-132080000D01*
X111760000Y-154398980D02*
X114841020Y-154398980D01*
X121920000Y-137160000D02*
X118110000Y-133350000D01*
X121920000Y-147320000D02*
X121920000Y-137160000D01*
X114841020Y-154398980D02*
X121920000Y-147320000D01*
X119380000Y-62230000D02*
X115570000Y-66040000D01*
X115570000Y-66040000D02*
X115570000Y-95250000D01*
X115570000Y-95250000D02*
X118110000Y-97790000D01*
X114300000Y-49530000D02*
X114300000Y-60960000D01*
X115570000Y-62230000D02*
X119380000Y-62230000D01*
X114300000Y-60960000D02*
X115570000Y-62230000D01*
X111760000Y-152400000D02*
X111760000Y-147320000D01*
X111760000Y-147320000D02*
X109220000Y-144780000D01*
X109220000Y-96520000D02*
X109220000Y-71120000D01*
X123190000Y-63500000D02*
X119380000Y-67310000D01*
X123190000Y-49530000D02*
X123190000Y-63500000D01*
X119380000Y-45720000D02*
X123190000Y-49530000D01*
X114300000Y-45720000D02*
X119380000Y-45720000D01*
X113030000Y-46990000D02*
X114300000Y-45720000D01*
X113030000Y-67310000D02*
X113030000Y-46990000D01*
X109220000Y-71120000D02*
X113030000Y-67310000D01*
X120650000Y-44450000D02*
X125730000Y-49530000D01*
X125730000Y-64770000D02*
X123190000Y-67310000D01*
X125730000Y-49530000D02*
X125730000Y-64770000D01*
X106680000Y-45720000D02*
X107950000Y-44450000D01*
X107950000Y-44450000D02*
X120650000Y-44450000D01*
X106680000Y-46990000D02*
X106680000Y-45720000D01*
X123190000Y-67310000D02*
X119380000Y-67310000D01*
X106680000Y-49530000D02*
X106680000Y-46990000D01*
X109220000Y-49530000D02*
X109220000Y-66040000D01*
X109220000Y-66040000D02*
X105410000Y-69850000D01*
X105410000Y-69850000D02*
X101600000Y-69850000D01*
X104140000Y-132080000D02*
X104140000Y-130810000D01*
X104140000Y-130810000D02*
X102870000Y-129540000D01*
X102870000Y-129540000D02*
X97790000Y-129540000D01*
X97790000Y-129540000D02*
X96520000Y-128270000D01*
X96520000Y-128270000D02*
X96520000Y-80010000D01*
X96520000Y-80010000D02*
X101600000Y-74930000D01*
X104140000Y-144780000D02*
X104140000Y-143510000D01*
X104140000Y-143510000D02*
X105410000Y-142240000D01*
X105410000Y-142240000D02*
X116840000Y-142240000D01*
X116840000Y-142240000D02*
X118110000Y-143510000D01*
X104140000Y-114300000D02*
X102870000Y-114300000D01*
X97790000Y-81280000D02*
X101600000Y-77470000D01*
X97790000Y-109220000D02*
X97790000Y-81280000D01*
X102870000Y-114300000D02*
X97790000Y-109220000D01*
X104140000Y-127000000D02*
X104140000Y-124460000D01*
X114300000Y-121920000D02*
X118110000Y-125730000D01*
X106680000Y-121920000D02*
X114300000Y-121920000D01*
X104140000Y-124460000D02*
X106680000Y-121920000D01*
X104140000Y-127000000D02*
X104140000Y-125730000D01*
X104140000Y-109220000D02*
X104140000Y-106680000D01*
X114300000Y-104140000D02*
X118110000Y-107950000D01*
X106680000Y-104140000D02*
X114300000Y-104140000D01*
X104140000Y-106680000D02*
X106680000Y-104140000D01*
X104140000Y-96520000D02*
X104140000Y-82550000D01*
X104140000Y-82550000D02*
X101600000Y-80010000D01*
X104140000Y-109220000D02*
X104140000Y-107950000D01*
X111760000Y-49530000D02*
X111760000Y-67310000D01*
X111760000Y-67310000D02*
X106680000Y-72390000D01*
X106680000Y-72390000D02*
X101600000Y-72390000D01*
X109220000Y-152400000D02*
X109220000Y-151130000D01*
X93980000Y-67310000D02*
X101600000Y-59690000D01*
X93980000Y-144780000D02*
X93980000Y-67310000D01*
X97790000Y-148590000D02*
X93980000Y-144780000D01*
X106680000Y-148590000D02*
X97790000Y-148590000D01*
X109220000Y-151130000D02*
X106680000Y-148590000D01*
X101600000Y-62230000D02*
X100330000Y-62230000D01*
X110490000Y-153128980D02*
X109220000Y-154398980D01*
X110490000Y-148590000D02*
X110490000Y-153128980D01*
X109220000Y-147320000D02*
X110490000Y-148590000D01*
X99060000Y-147320000D02*
X109220000Y-147320000D01*
X95250000Y-143510000D02*
X99060000Y-147320000D01*
X95250000Y-67310000D02*
X95250000Y-143510000D01*
X100330000Y-62230000D02*
X95250000Y-67310000D01*
X109761020Y-154398980D02*
X109220000Y-154398980D01*
M02*
