G04 #@! TF.FileFunction,Legend,Bot*
%FSLAX46Y46*%
G04 Gerber Fmt 4.6, Leading zero omitted, Abs format (unit mm)*
G04 Created by KiCad (PCBNEW 4.0.4-stable) date 12/11/16 12:15:52*
%MOMM*%
%LPD*%
G01*
G04 APERTURE LIST*
%ADD10C,0.100000*%
%ADD11C,0.150000*%
G04 APERTURE END LIST*
D10*
D11*
X111259050Y-102870000D02*
G75*
G03X111259050Y-102870000I-4579050J0D01*
G01*
X113030000Y-109220000D02*
X113030000Y-96520000D01*
X113030000Y-96520000D02*
X100330000Y-96520000D01*
X100330000Y-96520000D02*
X100330000Y-109220000D01*
X100330000Y-109220000D02*
X113030000Y-109220000D01*
X111259050Y-120650000D02*
G75*
G03X111259050Y-120650000I-4579050J0D01*
G01*
X113030000Y-127000000D02*
X113030000Y-114300000D01*
X113030000Y-114300000D02*
X100330000Y-114300000D01*
X100330000Y-114300000D02*
X100330000Y-127000000D01*
X100330000Y-127000000D02*
X113030000Y-127000000D01*
X111259050Y-138430000D02*
G75*
G03X111259050Y-138430000I-4579050J0D01*
G01*
X113030000Y-144780000D02*
X113030000Y-132080000D01*
X113030000Y-132080000D02*
X100330000Y-132080000D01*
X100330000Y-132080000D02*
X100330000Y-144780000D01*
X100330000Y-144780000D02*
X113030000Y-144780000D01*
X107846762Y-101536667D02*
X107894381Y-101679524D01*
X107894381Y-101917620D01*
X107846762Y-102012858D01*
X107799143Y-102060477D01*
X107703905Y-102108096D01*
X107608667Y-102108096D01*
X107513429Y-102060477D01*
X107465810Y-102012858D01*
X107418190Y-101917620D01*
X107370571Y-101727143D01*
X107322952Y-101631905D01*
X107275333Y-101584286D01*
X107180095Y-101536667D01*
X107084857Y-101536667D01*
X106989619Y-101584286D01*
X106942000Y-101631905D01*
X106894381Y-101727143D01*
X106894381Y-101965239D01*
X106942000Y-102108096D01*
X106894381Y-102441429D02*
X107894381Y-102679524D01*
X107180095Y-102870001D01*
X107894381Y-103060477D01*
X106894381Y-103298572D01*
X107894381Y-104203334D02*
X107894381Y-103631905D01*
X107894381Y-103917619D02*
X106894381Y-103917619D01*
X107037238Y-103822381D01*
X107132476Y-103727143D01*
X107180095Y-103631905D01*
X107846762Y-119316667D02*
X107894381Y-119459524D01*
X107894381Y-119697620D01*
X107846762Y-119792858D01*
X107799143Y-119840477D01*
X107703905Y-119888096D01*
X107608667Y-119888096D01*
X107513429Y-119840477D01*
X107465810Y-119792858D01*
X107418190Y-119697620D01*
X107370571Y-119507143D01*
X107322952Y-119411905D01*
X107275333Y-119364286D01*
X107180095Y-119316667D01*
X107084857Y-119316667D01*
X106989619Y-119364286D01*
X106942000Y-119411905D01*
X106894381Y-119507143D01*
X106894381Y-119745239D01*
X106942000Y-119888096D01*
X106894381Y-120221429D02*
X107894381Y-120459524D01*
X107180095Y-120650001D01*
X107894381Y-120840477D01*
X106894381Y-121078572D01*
X106989619Y-121411905D02*
X106942000Y-121459524D01*
X106894381Y-121554762D01*
X106894381Y-121792858D01*
X106942000Y-121888096D01*
X106989619Y-121935715D01*
X107084857Y-121983334D01*
X107180095Y-121983334D01*
X107322952Y-121935715D01*
X107894381Y-121364286D01*
X107894381Y-121983334D01*
X107846762Y-137096667D02*
X107894381Y-137239524D01*
X107894381Y-137477620D01*
X107846762Y-137572858D01*
X107799143Y-137620477D01*
X107703905Y-137668096D01*
X107608667Y-137668096D01*
X107513429Y-137620477D01*
X107465810Y-137572858D01*
X107418190Y-137477620D01*
X107370571Y-137287143D01*
X107322952Y-137191905D01*
X107275333Y-137144286D01*
X107180095Y-137096667D01*
X107084857Y-137096667D01*
X106989619Y-137144286D01*
X106942000Y-137191905D01*
X106894381Y-137287143D01*
X106894381Y-137525239D01*
X106942000Y-137668096D01*
X106894381Y-138001429D02*
X107894381Y-138239524D01*
X107180095Y-138430001D01*
X107894381Y-138620477D01*
X106894381Y-138858572D01*
X106894381Y-139144286D02*
X106894381Y-139763334D01*
X107275333Y-139430000D01*
X107275333Y-139572858D01*
X107322952Y-139668096D01*
X107370571Y-139715715D01*
X107465810Y-139763334D01*
X107703905Y-139763334D01*
X107799143Y-139715715D01*
X107846762Y-139668096D01*
X107894381Y-139572858D01*
X107894381Y-139287143D01*
X107846762Y-139191905D01*
X107799143Y-139144286D01*
M02*
