M48
;DRILL file {KiCad 4.0.4-stable} date 12/08/16 18:08:30
;FORMAT={-:-/ absolute / inch / decimal}
FMAT,2
INCH,TZ
T1C0.032
T2C0.039
T3C0.040
T4C0.091
%
G90
G05
M72
T1
X4.Y-4.2
X4.Y-4.7
X4.Y-4.9
X4.Y-5.4
X4.Y-5.6
X4.Y-6.1
X4.2Y-4.2
X4.2Y-4.7
X4.2Y-4.9
X4.2Y-5.4
X4.2Y-5.6
X4.2Y-6.1
X4.2Y-6.9
X4.2Y-6.9787
X4.3Y-6.9
X4.3Y-6.9787
T2
X4.55Y-4.25
X4.55Y-4.65
X4.55Y-4.95
X4.55Y-5.35
X4.55Y-5.65
X4.55Y-6.05
T3
X4.Y-2.35
X4.Y-2.45
X4.Y-2.55
X4.Y-2.65
X4.Y-2.75
X4.Y-2.85
X4.Y-2.95
X4.Y-3.05
X4.Y-3.15
X4.Y-3.25
X4.Y-3.35
X4.Y-3.45
X4.2Y-1.95
X4.3Y-1.95
X4.4Y-1.95
X4.5Y-1.95
X4.7Y-2.35
X4.7Y-2.45
X4.7Y-2.55
X4.7Y-2.65
X4.7Y-2.75
X4.7Y-2.85
X4.7Y-2.95
X4.7Y-3.05
X4.7Y-3.15
X4.7Y-3.25
X4.7Y-3.35
X4.7Y-3.45
T4
X4.0138Y-7.085
X4.4862Y-7.085
T0
M30
