M48
;DRILL file {KiCad 4.0.4-stable} date 12/11/16 12:15:56
;FORMAT={-:-/ absolute / inch / decimal}
FMAT,2
INCH,TZ
T1C0.032
T2C0.039
T3C0.040
T4C0.091
%
G90
G05
M72
T1
X4.1Y-3.8
X4.1Y-4.3
X4.1Y-4.5
X4.1Y-5.
X4.1Y-5.2
X4.1Y-5.7
X4.3Y-3.8
X4.3Y-4.3
X4.3Y-4.5
X4.3Y-5.
X4.3Y-5.2
X4.3Y-5.7
X4.3Y-6.
X4.3Y-6.0787
X4.4Y-6.
X4.4Y-6.0787
T2
X4.65Y-3.85
X4.65Y-4.25
X4.65Y-4.55
X4.65Y-4.95
X4.65Y-5.25
X4.65Y-5.65
T3
X4.Y-2.35
X4.Y-2.45
X4.Y-2.55
X4.Y-2.65
X4.Y-2.75
X4.Y-2.85
X4.Y-2.95
X4.Y-3.05
X4.Y-3.15
X4.Y-3.25
X4.Y-3.35
X4.Y-3.45
X4.2Y-1.95
X4.3Y-1.95
X4.4Y-1.95
X4.5Y-1.95
X4.7Y-2.35
X4.7Y-2.45
X4.7Y-2.55
X4.7Y-2.65
X4.7Y-2.75
X4.7Y-2.85
X4.7Y-2.95
X4.7Y-3.05
X4.7Y-3.15
X4.7Y-3.25
X4.7Y-3.35
X4.7Y-3.45
T4
X4.1138Y-6.185
X4.5862Y-6.185
T0
M30
